<svg width="55" height="33" viewBox="0 0 55 33" fill="none" xmlns="http://www.w3.org/2000/svg">
<path fillRule="evenodd" clipRule="evenodd" d="M0 5.5V11H5.5H11V5.5V0H5.5H0V5.5ZM16.9583 5.2635C14.0177 8.15528 11.6111 10.6291 11.6111 10.7604C11.6111 10.8924 13.145 11 15.0193 11C17.9716 11 18.6664 11.2389 20.2137 12.7863L22 14.5726V23.7863V33H27.5H33L32.9866 20.9306C32.9694 5.76461 32.1823 3.47233 26.1226 0.93989C24.8851 0.42289 23.5198 0.00122054 23.089 0.00305388C22.6582 0.0042761 19.8996 2.37172 16.9583 5.2635ZM38.6198 5.434L33.5451 10.6944L37.2998 11.0024C40.4507 11.2616 41.2916 11.5861 42.5272 13.0228C43.9413 14.6667 44 15.0981 44 23.8676V33H49.5H55L54.9866 20.9306C54.9694 5.76461 54.1823 3.47233 48.1226 0.93989C46.8851 0.42289 45.3823 0.0391101 44.7834 0.0867767C44.1846 0.134443 41.4107 2.541 38.6198 5.434ZM5.31972 16.907L0 22.2029V27.6014V33H5.5H11V22.3056C11 16.4236 10.9187 11.6111 10.8197 11.6111C10.7207 11.6111 8.24572 13.9944 5.31972 16.907Z" fill="#333333"/>
<rect width="11" height="11" fill="#007BFF"/>
</svg>
